PathFileType	4	(X/Y/Z)	HSS_walk1.trc
DataRate	CameraRate	NumFrames	NumMarkers	Units	OrigDataRate	OrigDataStartFrame	OrigNumFrames
120.0	120.0	7	44	mm	120.0	883	1008
Frame#	Time		R.Shoulder		Offset		L.Shoulder		R.Elbow		R.Wrist.Radial		R.Wrist		R.Hand		L.Elbow		L.Wrist.Radial		L.Wrist		L.Hand		R.Hip		V.Sacral		L.PSIS		L.Hip		R.Thigh.Upper		R.Thigh.Front		R.Thigh.Rear		X.Shell.Lower.Thigh.Right		R.Knee.Lateral		R.Shank.Upper		R.Shank.Front		R.Shank.Rear		X.Shell.Lower.Shank.Right		R.Ankle.Lateral		R.Heel		R.Toe		L.Thigh.Upper		L.Thigh.Front		L.Thigh.Rear		X.Shell.Lower.Thigh.Left		L.Knee.Lateral		L.Shank.Upper		L.Shank.Front		L.Shank.Rear		X.Shell.Lower.Shank.Left		L.Ankle.Lateral		L.Heel		L.Toe		R.Troc		L.Troc		R.PSIS		L.ASIS		R.ASIS
			X1	Y1	Z1	X2	Y2	Z2	X3	Y3	Z3	X4	Y4	Z4	X5	Y5	Z5	X6	Y6	Z6	X7	Y7	Z7	X8	Y8	Z8	X9	Y9	Z9	X10	Y10	Z10	X11	Y11	Z11	X12	Y12	Z12	X13	Y13	Z13	X14	Y14	Z14	X15	Y15	Z15	X16	Y16	Z16	X17	Y17	Z17	X18	Y18	Z18	X19	Y19	Z19	X20	Y20	Z20	X21	Y21	Z21	X22	Y22	Z22	X23	Y23	Z23	X24	Y24	Z24	X25	Y25	Z25	X26	Y26	Z26	X27	Y27	Z27	X28	Y28	Z28	X29	Y29	Z29	X30	Y30	Z30	X31	Y31	Z31	X32	Y32	Z32	X33	Y33	Z33	X34	Y34	Z34	X35	Y35	Z35	X36	Y36	Z36	X37	Y37	Z37	X38	Y38	Z38	X39	Y39	Z39	X40	Y40	Z40	X41	Y41	Z41	X42	Y42	Z42	X43	Y43	Z43	X44	Y44	Z44

883	7.35000	2146.12329	1473.12207	-31.07240	2036.30261	1396.24097	-327.06909	2170.94043	1484.63635	-400.25812	2076.07422	1114.47498	1.90437	2180.12036	879.29968	13.46825	2136.71558	879.96399	73.96078	2170.86182	799.35980	70.89822	2198.28394	1118.12708	-451.22177	2389.22510	948.50690	-408.35635	2362.40674	939.03009	-474.96844	2426.61426	883.61572	-457.09027	2167.77661	1036.77075	-60.30435	2058.72559	1011.12091	-215.16959	2063.86328	1018.55273	-256.98193	2187.82837	1032.85559	-357.23068	2316.99976	721.55792	-18.60735	2364.45117	701.66925	-31.17971	2310.53564	677.48413	-10.20989	2350.33960	658.55548	-25.09377	2324.76245	536.53186	-39.06980	2256.45337	403.12320	-9.46261	2269.76562	352.60910	-30.78383	2216.77100	382.06958	-31.55788	2224.00488	336.16470	-39.30988	2135.47290	138.13570	-106.36742	2095.14185	118.48592	-169.90700	2257.40186	51.04364	-79.36761	2265.02734	688.56964	-353.59738	2286.85010	642.66443	-326.13782	2236.99438	649.89825	-364.54889	2264.45874	618.05444	-348.52258	2200.43433	499.31769	-322.01013	2148.97144	299.68008	-351.26532	2169.84692	273.50766	-329.24545	2111.20874	266.57483	-340.61841	2129.58252	233.04384	-337.40802	2106.83594	74.18765	-281.04129	2044.89709	41.04454	-236.44043	2246.75146	35.54429	-266.78278	2208.21655	888.68213	-29.34120	2202.22632	887.10077	-387.23886	2057.00635	1017.36987	-171.40657	2252.29297	999.87311	-315.27649	2233.72632	1001.91364	-91.49758
884	7.35833	2153.76367	1472.84216	-31.49360	2045.49487	1396.04395	-328.19861	2180.42969	1484.79700	-400.49545	2079.07104	1115.26721	0.84510	2178.41162	878.31049	14.38283	2133.88257	880.00464	74.13584	2166.48682	798.66119	71.78315	2213.22510	1118.55200	-452.07663	2408.66455	954.25446	-407.12848	2382.27051	943.65649	-473.86014	2447.88892	889.95636	-455.15231	2176.91357	1036.93762	-60.40427	2066.90454	1010.83960	-214.27196	2071.58472	1018.16992	-256.29266	2195.25000	1032.31519	-357.57101	2327.43140	722.44446	-19.41512	2374.67188	702.59381	-32.87725	2321.35425	678.21301	-11.23592	2360.92017	659.48340	-26.62271	2335.99634	537.15826	-40.44949	2273.43164	400.50211	-9.64246	2288.84668	350.62912	-31.25545	2234.55176	377.60812	-31.36679	2244.25610	331.88782	-38.24517	2164.70752	129.48277	-105.45449	2124.64038	107.60764	-168.56534	2291.30933	49.41550	-79.23643	2269.62720	687.68042	-353.66043	2290.99097	641.73425	-326.05475	2241.21997	649.39850	-364.44342	2268.44092	617.32886	-348.47839	2202.94580	498.88150	-322.18915	2149.94458	299.67453	-351.35413	2171.15186	273.36252	-329.40051	2112.32446	266.72806	-340.52036	2130.24121	233.03929	-337.25146	2107.07715	74.40287	-281.01041	2044.93958	41.38112	-236.25307	2246.86523	35.54025	-266.78561	2217.82764	889.32013	-28.86084	2209.02979	886.35236	-386.32550	2064.69434	1017.17480	-170.80489	2260.08276	999.45581	-315.97525	2242.69800	1002.11566	-91.92873
885	7.36667	2161.72632	1472.49280	-31.94965	2054.69165	1395.85803	-329.33179	2189.77515	1484.68140	-400.62979	2081.74780	1116.21021	-0.57564	2176.56323	877.36517	15.06153	2130.93872	880.22369	73.93906	2162.16968	797.99335	72.56432	2228.27808	1119.06067	-453.32330	2427.68677	960.04913	-405.93878	2402.05859	948.21844	-472.52161	2468.70288	896.24341	-453.21069	2186.09253	1036.95886	-60.47056	2075.07666	1010.42017	-213.44002	2079.76929	1018.00897	-255.42188	2202.54248	1031.80054	-357.74524	2337.36865	722.70923	-20.32747	2384.53296	703.10767	-34.59092	2331.58252	678.39136	-12.17083	2371.13184	660.02106	-28.01578	2346.42896	537.31598	-41.90287	2290.57056	397.64014	-9.99760	2307.97803	348.53629	-32.01309	2252.28320	372.73520	-31.02011	2264.30786	327.60785	-38.21915	2194.40234	121.02097	-104.29330	2155.03223	96.81370	-167.45355	2325.09521	47.98864	-79.15279	2274.11279	686.95276	-353.23669	2295.09229	640.68011	-326.23538	2245.55615	648.93909	-364.34555	2272.22729	616.39789	-348.53683	2205.37329	498.53296	-322.51065	2151.32202	299.66980	-351.55109	2172.26001	273.25482	-329.56949	2113.17285	266.96835	-340.64935	2131.26660	233.12300	-337.42081	2107.23853	74.61115	-281.00684	2044.98865	41.79970	-236.11540	2247.26294	35.83025	-266.94412	2227.21924	889.10529	-29.01343	2215.95972	885.83228	-386.80762	2074.02686	1016.90851	-169.98387	2267.58057	998.85089	-316.57886	2251.81958	1002.01428	-92.51965
886	7.37500	2169.42822	1471.97009	-32.37563	2063.91309	1395.40686	-330.15875	2198.94653	1484.52576	-400.88962	2085.34546	1117.15173	-1.65619	2174.90503	876.46222	15.90430	2129.07129	880.54626	74.27756	2158.14209	797.58521	73.27034	2243.15649	1119.61450	-453.98526	2446.22632	965.66052	-404.75555	2421.23804	952.81787	-471.39774	2489.10010	902.78186	-451.45474	2195.56055	1036.88074	-60.94184	2083.08130	1010.16370	-212.79622	2088.36963	1017.52563	-254.75522	2209.97046	1031.26196	-357.75372	2347.09375	722.63379	-21.21512	2393.95581	703.18579	-36.12802	2341.44897	678.37537	-13.28450	2380.70410	659.90796	-29.55097	2356.75073	537.08655	-43.38549	2307.39673	394.59573	-10.19786	2327.04663	346.51389	-32.37869	2270.30542	367.97433	-30.61472	2284.32886	323.32605	-38.00548	2224.48364	112.90977	-103.09018	2185.78296	86.60946	-165.67601	2359.13916	46.96637	-78.77119	2278.87012	686.10925	-353.46085	2299.14307	639.56470	-325.94968	2249.83130	648.41351	-364.17673	2275.97827	615.68121	-348.43695	2208.17554	498.35309	-322.76337	2152.60620	299.62491	-351.63834	2173.07178	273.02316	-329.65701	2114.34717	267.08667	-340.62708	2131.80347	233.17474	-337.48581	2107.51514	74.85726	-280.91660	2044.98486	42.08874	-235.98459	2247.33154	35.78721	-266.95648	2236.88379	888.89673	-28.84594	2222.90015	885.25220	-386.71509	2082.28687	1016.51886	-169.46498	2275.25049	998.24841	-316.96747	2260.82764	1001.84082	-92.87010
887	7.38333	2177.20752	1471.38440	-32.60633	2072.89478	1395.05969	-331.01151	2209.45044	1484.38086	-400.75919	2088.78271	1117.84790	-2.74840	2173.59351	875.82654	16.72215	2127.21436	880.85474	74.39928	2154.55957	797.28601	73.94743	2257.98511	1119.80029	-454.71930	2464.67334	971.49884	-403.59415	2440.04688	957.25671	-470.12970	2509.40942	909.29730	-449.57224	2204.85889	1036.60071	-60.78354	2091.78589	1009.55615	-211.92778	2095.55713	1017.21686	-254.28296	2217.57568	1030.62170	-357.83557	2356.16821	722.21948	-22.84767	2403.03223	702.72467	-37.64605	2350.73657	677.76575	-14.43777	2390.16187	659.54034	-31.05884	2366.19019	536.48022	-45.10165	2324.07007	391.87439	-10.43007	2345.85767	344.58734	-33.40001	2288.24536	363.01477	-30.07850	2304.20728	319.27478	-37.80296	2255.01392	105.26647	-101.40321	2217.09546	77.07920	-163.65169	2393.37451	46.90016	-78.85132	2283.56689	685.42047	-353.38516	2303.45947	638.53455	-326.25320	2253.90820	647.85388	-364.19940	2279.93652	614.98169	-348.48798	2210.46045	497.98880	-322.67639	2153.87744	299.58945	-351.82141	2174.35498	272.99277	-329.99326	2115.44922	267.31335	-340.68408	2132.84985	233.29497	-337.60489	2107.60864	74.92783	-280.93509	2045.03821	42.40058	-235.90179	2247.39502	35.74076	-266.90878	2246.42212	888.53448	-28.41413	2229.84741	884.81390	-387.38760	2091.11475	1016.11920	-168.42120	2283.32129	997.64966	-317.30225	2269.96338	1001.46570	-93.24060
888	7.39167	2184.89941	1470.93372	-33.09002	2082.06934	1394.32056	-331.73529	2218.59033	1484.07178	-400.93137	2092.41382	1118.59436	-3.78352	2172.80371	875.20245	17.31467	2125.51733	881.31049	74.65386	2151.54102	797.22192	74.64666	2272.41699	1120.43567	-455.49420	2482.58447	977.14758	-402.38419	2458.56226	961.98016	-468.95172	2528.80029	915.70190	-447.74112	2214.07031	1036.18811	-60.79986	2099.99072	1008.95435	-211.35797	2104.57788	1016.47803	-253.40739	2225.22070	1029.85046	-357.90308	2364.75000	721.02173	-24.03561	2411.60547	701.76605	-39.02813	2359.52539	676.68042	-15.66008	2398.87939	658.43158	-32.60548	2375.45850	535.53235	-47.15993	2340.57080	389.03650	-10.83828	2364.41235	343.30847	-33.04886	2305.95874	358.34787	-29.72345	2324.07910	315.38535	-37.53582	2286.02930	98.50904	-99.24309	2248.25391	67.81123	-161.05074	2427.49097	47.36736	-79.40945	2288.22510	684.63983	-353.18835	2307.44629	637.61975	-326.06253	2258.07739	647.44977	-364.22232	2283.64893	614.23639	-348.33612	2213.10156	497.68222	-322.94116	2155.05273	299.51007	-351.94693	2175.63306	272.79059	-330.13934	2116.29614	267.53766	-340.75119	2133.59595	233.36916	-337.68506	2107.67017	75.02576	-280.88290	2045.05212	42.70604	-235.76976	2247.65283	35.92830	-267.20718	2255.57544	887.72559	-28.05802	2236.60791	884.19281	-388.79800	2099.83643	1015.47211	-167.85995	2291.01416	996.84729	-317.53009	2279.06421	1000.99414	-93.48061
889	7.40000	2192.73730	1470.26904	-33.19585	2091.21948	1393.70337	-332.59091	2227.71997	1483.49426	-400.90170	2096.29224	1119.47498	-4.42422	2172.03833	874.70874	18.14149	2124.55127	881.76740	74.86864	2148.79272	797.26056	75.36588	2286.83325	1120.56934	-455.91156	2500.12256	982.74109	-401.08679	2476.92896	966.46222	-467.59952	2547.95972	921.98785	-446.08902	2223.51025	1035.66248	-60.78108	2108.72754	1008.45361	-210.82869	2112.54346	1015.63660	-252.52754	2232.84668	1029.26416	-357.91821	2373.09668	719.61072	-25.09091	2419.91260	700.32196	-40.36292	2367.89062	675.09131	-16.71777	2406.84521	656.92804	-33.96149	2384.24854	534.33734	-49.03685	2357.03296	386.51556	-11.42590	2382.98535	341.86838	-33.61152	2323.67456	353.87009	-29.48410	2343.67334	312.02103	-37.15405	2317.35352	92.56544	-97.24433	2280.16675	59.84142	-158.11707	2461.64624	48.76154	-80.07687	2292.76270	683.85382	-353.08456	2311.33130	636.51721	-326.09543	2261.69849	647.09009	-363.58154	2287.32275	613.40674	-348.23154	2215.54175	497.38705	-323.21075	2156.20459	299.48730	-352.15594	2176.48999	272.61438	-330.19568	2117.55103	267.73077	-340.96933	2134.63330	233.60483	-338.01242	2107.89014	75.29372	-280.87128	2045.02222	43.13236	-235.76935	2247.20190	35.37778	-266.80545	2264.76196	886.77649	-27.98117	2243.78320	883.58295	-389.42676	2109.32007	1014.72009	-166.96832	2299.27588	996.10870	-317.79660	2288.18774	1000.38336	-93.81383
